<?xml version="1.0" standalone="no"?>
<!DOCTYPE svg PUBLIC "-//W3C//DTD SVG 20010904//EN"
 "http://www.w3.org/TR/2001/REC-SVG-20010904/DTD/svg10.dtd">
<svg version="1.0" xmlns="http://www.w3.org/2000/svg"
 width="2240.000000pt" height="2240.000000pt" viewBox="0 0 2240.000000 2240.000000"
 preserveAspectRatio="xMidYMid meet">

<g transform="translate(0.000000,2240.000000) scale(0.100000,-0.100000)"
fill="#000000" stroke="none">
<path d="M10805 22394 c-714 -35 -1269 -101 -1848 -220 -1957 -400 -3720
-1289 -5237 -2638 -174 -155 -701 -682 -856 -856 -1437 -1615 -2359 -3528
-2708 -5617 -108 -646 -151 -1171 -151 -1863 0 -692 43 -1217 151 -1863 349
-2089 1271 -4002 2708 -5617 155 -174 682 -701 856 -856 1614 -1436 3529
-2359 5617 -2708 646 -108 1171 -151 1863 -151 470 0 651 8 1055 46 2152 200
4202 1023 5895 2367 373 296 592 493 966 866 373 374 569 592 866 966 1343
1692 2167 3743 2367 5895 38 404 46 585 46 1055 0 470 -8 651 -46 1055 -200
2152 -1024 4203 -2367 5895 -297 374 -493 592 -866 966 -374 373 -592 569
-966 866 -1583 1257 -3488 2063 -5490 2322 -483 63 -832 86 -1360 90 -234 2
-456 2 -495 0z m680 -4404 c1857 -138 3372 -1526 3664 -3360 38 -236 46 -342
46 -630 0 -288 -8 -394 -46 -630 -201 -1263 -998 -2357 -2136 -2934 -452 -229
-885 -357 -1418 -418 -144 -16 -646 -16 -790 0 -555 64 -1016 204 -1483 452
-942 498 -1666 1387 -1961 2406 -467 1612 107 3325 1451 4331 761 570 1726
853 2673 783z m275 -9210 c1434 -113 2756 -597 3905 -1430 547 -397 1064 -893
1491 -1430 404 -508 771 -1121 1019 -1698 l57 -133 -119 -113 c-1358 -1297
-3054 -2192 -4863 -2565 -713 -147 -1301 -206 -2050 -206 -451 0 -612 8 -1000
46 -1608 158 -3154 708 -4511 1605 -499 330 -962 700 -1402 1120 l-119 113 57
133 c248 577 615 1190 1019 1698 427 537 944 1033 1491 1430 959 696 2038
1148 3210 1345 296 50 516 73 940 99 111 7 738 -3 875 -14z"/>
</g>
</svg>
