<?xml version="1.0" standalone="no"?>
<!DOCTYPE svg PUBLIC "-//W3C//DTD SVG 20010904//EN"
 "http://www.w3.org/TR/2001/REC-SVG-20010904/DTD/svg10.dtd">
<svg version="1.0" xmlns="http://www.w3.org/2000/svg"
 width="256.000000pt" height="256.000000pt" viewBox="0 0 256.000000 256.000000"
 preserveAspectRatio="xMidYMid meet">

<g transform="translate(0.000000,256.000000) scale(0.100000,-0.100000)"
fill="#000000" stroke="none">
<path d="M890 2534 c-19 -2 -102 -9 -185 -15 -82 -6 -202 -17 -265 -26 -103
-13 -136 -17 -177 -22 -21 -2 -18 -1326 2 -1443 30 -172 91 -312 198 -456 77
-102 169 -185 324 -288 106 -71 467 -274 487 -274 15 0 269 136 390 209 363
219 537 436 618 771 20 81 21 120 25 782 l4 697 -23 5 c-25 5 -47 8 -343 38
-157 15 -289 20 -610 23 -225 2 -426 1 -445 -1z m638 -64 c225 -10 393 -23
620 -51 l92 -11 0 -582 c0 -319 -5 -630 -10 -691 -39 -414 -205 -633 -690
-908 -64 -36 -149 -82 -191 -102 l-76 -38 -152 82 c-482 259 -656 424 -751
715 -46 139 -50 202 -50 884 0 353 3 642 8 642 4 0 79 9 167 19 88 11 234 25
325 31 151 10 205 12 400 18 36 1 174 -3 308 -8z"/>
<path d="M980 2434 c-252 -17 -531 -44 -598 -59 l-23 -6 4 -667 c3 -650 4
-669 25 -750 25 -96 75 -209 122 -278 104 -150 311 -302 652 -479 l116 -60 93
49 c476 249 670 418 764 669 55 148 57 178 62 874 l4 642 -23 5 c-37 8 -180
25 -358 41 -154 15 -714 27 -840 19z m720 -65 c141 -10 389 -36 428 -44 l22
-5 0 -533 c0 -714 -9 -807 -97 -987 -39 -82 -59 -108 -142 -190 -123 -122
-229 -192 -528 -351 l-102 -54 -78 39 c-123 60 -331 180 -413 237 -95 66 -225
198 -268 271 -44 74 -77 172 -97 282 -12 73 -15 192 -15 687 0 561 1 598 18
603 53 15 462 53 657 60 131 4 459 -3 615 -15z"/>
<path d="M1182 2182 c-7 -5 -17 -24 -22 -43 -8 -26 -101 -535 -168 -924 l-7
-40 -59 -3 -58 -3 3 33 c6 87 -12 112 -94 133 -71 18 -207 20 -230 3 -10 -9
-24 -52 -37 -123 -12 -60 -25 -129 -30 -153 -4 -24 -5 -53 -2 -65 6 -26 118
-169 147 -188 15 -10 72 -15 215 -17 269 -5 262 -7 375 89 52 44 96 88 99 97
3 9 12 58 21 107 8 50 20 114 26 143 l10 52 61 0 c57 0 60 -1 55 -22 -3 -13
-20 -102 -37 -199 -32 -187 -31 -207 10 -244 17 -16 40 -20 120 -23 103 -4
156 6 183 36 17 18 227 1182 227 1255 0 47 -34 82 -88 92 -73 13 -210 17 -232
5 -12 -6 -43 -58 -75 -126 -29 -62 -56 -114 -58 -114 -3 0 -10 38 -17 86 -14
101 -39 138 -97 149 -61 11 -227 16 -241 7z m198 -37 c0 -3 13 -96 29 -207 17
-112 32 -216 34 -233 3 -25 23 10 120 208 l116 237 92 0 c90 0 91 0 86 -22 -3
-13 -20 -102 -36 -198 -105 -594 -162 -918 -167 -942 l-6 -28 -89 0 c-88 0
-89 0 -84 23 10 42 125 702 125 717 0 8 -29 -46 -64 -120 l-64 -135 -60 0
c-33 0 -63 3 -67 6 -3 4 -8 69 -11 145 -3 76 -6 140 -8 141 -2 2 -15 -47 -30
-109 -15 -62 -33 -138 -41 -168 -8 -30 -27 -126 -41 -213 l-27 -158 -78 -65
-77 -64 -200 0 -201 0 -54 67 c-50 61 -54 69 -46 102 4 20 12 69 19 109 l12
72 89 0 c50 0 89 -4 89 -10 0 -8 -12 -73 -26 -137 l-4 -23 153 0 154 0 41 233
c23 127 63 355 89 505 l48 272 92 0 c51 0 93 -2 93 -5z"/>
</g>
</svg>
