<?xml version="1.0" standalone="no"?>
<!DOCTYPE svg PUBLIC "-//W3C//DTD SVG 20010904//EN"
 "http://www.w3.org/TR/2001/REC-SVG-20010904/DTD/svg10.dtd">
<svg version="1.0" xmlns="http://www.w3.org/2000/svg"
 width="200.000000pt" height="200.000000pt" viewBox="0 0 200.000000 200.000000"
 preserveAspectRatio="xMidYMid meet">

<g transform="translate(0.000000,200.000000) scale(0.100000,-0.100000)"
fill="#000000" stroke="none">
<path d="M930 1889 c-161 -122 -373 -199 -545 -199 l-63 0 -7 -202 c-4 -112
-5 -327 -3 -478 4 -263 6 -279 31 -363 81 -265 235 -425 524 -545 114 -47 152
-47 266 0 289 120 443 280 524 545 25 85 27 99 31 373 2 157 1 372 -3 478 l-7
192 -63 0 c-171 0 -366 71 -538 194 -43 31 -79 56 -80 55 -1 0 -31 -23 -67
-50z m132 -150 c128 -82 307 -151 433 -167 l60 -7 0 -415 0 -415 -28 -80 c-38
-108 -105 -212 -180 -281 -75 -68 -290 -179 -347 -179 -57 0 -272 111 -347
179 -99 90 -176 232 -203 371 -7 40 -10 187 -8 440 l3 380 60 7 c127 16 326
94 440 172 28 19 51 35 52 35 1 1 31 -17 65 -40z"/>
<path d="M920 1605 c-91 -56 -221 -105 -373 -139 l-27 -6 0 -318 c0 -344 7
-405 55 -510 37 -81 98 -157 165 -206 56 -42 217 -126 239 -126 8 0 11 190 11
670 0 369 -3 670 -7 669 -5 0 -33 -16 -63 -34z m-96 -506 c21 -16 26 -29 26
-64 0 -27 -6 -47 -16 -56 -13 -11 -15 -27 -9 -101 l7 -88 -61 0 -61 0 1 33 c0
17 4 56 8 85 6 44 5 55 -11 69 -11 10 -18 30 -18 55 0 75 75 113 134 67z"/>
<path d="M1240 1240 c0 -18 -7 -20 -60 -20 -59 0 -60 0 -60 -29 0 -27 2 -29
63 -37 l62 -8 -46 -4 c-42 -3 -47 -6 -52 -30 -7 -37 -2 -42 49 -42 l44 0 0
-54 c0 -85 -9 -115 -41 -132 -79 -41 -77 -165 4 -214 38 -24 78 -25 121 -5 68
32 89 136 41 194 -14 16 -34 33 -44 36 -17 5 -18 17 -13 185 l5 180 -37 0
c-29 0 -36 -4 -36 -20z m70 -420 c28 -28 25 -64 -7 -89 -30 -24 -58 -20 -85
11 -23 26 -23 40 3 72 25 31 61 34 89 6z"/>
</g>
</svg>
