<?xml version="1.0" standalone="no"?>
<!DOCTYPE svg PUBLIC "-//W3C//DTD SVG 20010904//EN"
 "http://www.w3.org/TR/2001/REC-SVG-20010904/DTD/svg10.dtd">
<svg version="1.0" xmlns="http://www.w3.org/2000/svg"
 width="256.000000pt" height="256.000000pt" viewBox="0 0 256.000000 256.000000"
 preserveAspectRatio="xMidYMid meet">

<g transform="translate(0.000000,256.000000) scale(0.100000,-0.100000)"
fill="#000000" stroke="none">
<path d="M880 2534 c-25 -2 -133 -11 -240 -19 -107 -9 -224 -21 -259 -27 -58
-10 -76 -12 -118 -17 -17 -1 -19 -1308 -2 -1428 21 -156 99 -341 202 -478 114
-153 347 -317 721 -511 l93 -48 137 73 c299 157 465 269 588 396 178 185 274
393 298 643 5 59 10 386 10 729 l0 623 -22 4 c-25 5 -48 8 -343 38 -157 15
-288 20 -610 23 -225 1 -430 1 -455 -1z m875 -170 c215 -17 360 -34 375 -44 8
-5 11 -176 11 -611 1 -568 -1 -610 -20 -699 -40 -189 -83 -272 -206 -396 -117
-118 -246 -204 -533 -355 l-102 -53 -83 41 c-290 148 -442 246 -557 363 -94
96 -140 165 -175 267 -52 148 -55 198 -55 844 0 561 1 598 18 603 58 17 485
55 667 59 185 4 479 -4 660 -19z"/>
<path d="M1182 2182 c-7 -5 -17 -24 -22 -43 -8 -26 -101 -535 -168 -924 l-7
-40 -59 -3 -58 -3 3 33 c6 87 -12 112 -94 133 -71 18 -207 20 -230 3 -10 -9
-24 -52 -37 -123 -12 -60 -25 -129 -30 -153 -4 -24 -5 -53 -2 -65 6 -26 118
-169 147 -188 15 -10 72 -15 215 -17 269 -5 262 -7 375 89 52 44 96 88 99 97
3 9 12 58 21 107 8 50 20 114 26 143 l10 52 61 0 c57 0 60 -1 55 -22 -3 -13
-20 -102 -37 -199 -32 -187 -31 -207 10 -244 17 -16 40 -20 120 -23 103 -4
156 6 183 36 17 18 227 1182 227 1255 0 47 -34 82 -88 92 -73 13 -210 17 -232
5 -12 -6 -43 -58 -75 -126 -29 -62 -56 -114 -58 -114 -3 0 -10 38 -17 86 -14
101 -39 138 -97 149 -61 11 -227 16 -241 7z m198 -37 c0 -3 13 -96 29 -207 17
-112 32 -216 34 -233 3 -25 23 10 120 208 l116 237 92 0 c90 0 91 0 86 -22 -3
-13 -20 -102 -36 -198 -105 -594 -162 -918 -167 -942 l-6 -28 -89 0 c-88 0
-89 0 -84 23 10 42 125 702 125 717 0 8 -29 -46 -64 -120 l-64 -135 -60 0
c-33 0 -63 3 -67 6 -3 4 -8 69 -11 145 -3 76 -6 140 -8 141 -2 2 -15 -47 -30
-109 -15 -62 -33 -138 -41 -168 -8 -30 -27 -126 -41 -213 l-27 -158 -78 -65
-77 -64 -200 0 -201 0 -54 67 c-50 61 -54 69 -46 102 4 20 12 69 19 109 l12
72 89 0 c50 0 89 -4 89 -10 0 -8 -12 -73 -26 -137 l-4 -23 153 0 154 0 41 233
c23 127 63 355 89 505 l48 272 92 0 c51 0 93 -2 93 -5z"/>
</g>
</svg>
